<svg class="app-icon" viewBox="0 0 40 40" version="1.1" xmlns="http://www.w3.org/2000/svg" xmlns:xlink="http://www.w3.org/1999/xlink">
  <title id="title">Tropos App Icon</title>
  <defs>
    <path id="super-ellipse" d="M13.9456667,0 L26.0543333,0 C30.07,0 32.0773333,0 34.239,0.683333333 C36.599,1.54233333 38.4576667,3.401 39.3166667,5.761 C40,7.92233333 40,9.93033333 40,13.9456667 L40,26.0543333 C40,30.07 40,32.0773333 39.3166667,34.239 C38.4576667,36.599 36.599,38.4576667 34.239,39.3163333 C32.0773333,40 30.07,40 26.0543333,40 L13.9456667,40 C9.93,40 7.92233333,40 5.761,39.3163333 C3.401,38.4576667 1.54233333,36.599 0.683333333,34.239 C0,32.0773333 0,30.07 0,26.0543333 L0,13.9456667 C0,9.93033333 0,7.92233333 0.683333333,5.761 C1.54233333,3.401 3.401,1.54233333 5.761,0.683333333 C7.92233333,0 9.93,0 13.9456667,0 L13.9456667,0"></path>
  </defs>
    <mask id="mask" fill="#fff">
      <use xlink:href="#super-ellipse"></use>
    </mask>
    <g mask="url(#mask)">
      <rect fill="#14141c" x="0" y="0" width="40" height="16"></rect>
      <rect fill="#eb522e" x="0" y="16" width="40" height="6"></rect>
      <rect fill="#f7a400" x="0" y="22" width="40" height="6"></rect>
      <rect fill="#00b6ec" x="0" y="28" width="40" height="6"></rect>
      <rect fill="#72d5f2" x="0" y="34" width="40" height="6"></rect>
    </g>
</svg>
